<mxfile host="app.diagrams.net" modified="2020-11-17T01:48:13.138Z" agent="5.0 (Windows NT 10.0; Win64; x64) AppleWebKit/537.36 (KHTML, like Gecko) Chrome/86.0.4240.183 Safari/537.36" etag="zYtlGwC2rLXV3hZ3yGFp" version="13.9.7" type="github">
  <diagram id="B0DvHr3AO_0gViP_B6NH" name="第 1 页">
    <mxGraphModel dx="2062" dy="794" grid="1" gridSize="10" guides="1" tooltips="1" connect="1" arrows="1" fold="1" page="1" pageScale="1" pageWidth="827" pageHeight="1169" math="0" shadow="0">
      <root>
        <mxCell id="0" />
        <mxCell id="1" parent="0" />
        <mxCell id="Hb3EcVcKEmUJnOGqKNmk-1" value="&lt;font face=&quot;Comic Sans MS&quot;&gt;&lt;b&gt;Client&lt;/b&gt;&lt;/font&gt;" style="shape=umlLifeline;perimeter=lifelinePerimeter;whiteSpace=wrap;html=1;container=1;collapsible=0;recursiveResize=0;outlineConnect=0;shadow=1;" vertex="1" parent="1">
          <mxGeometry x="140" y="80" width="100" height="330" as="geometry" />
        </mxCell>
        <mxCell id="Hb3EcVcKEmUJnOGqKNmk-2" value="&lt;font face=&quot;Comic Sans MS&quot;&gt;&lt;b&gt;Server&lt;/b&gt;&lt;/font&gt;" style="shape=umlLifeline;perimeter=lifelinePerimeter;whiteSpace=wrap;html=1;container=1;collapsible=0;recursiveResize=0;outlineConnect=0;shadow=1;" vertex="1" parent="1">
          <mxGeometry x="320" y="80" width="100" height="330" as="geometry" />
        </mxCell>
        <mxCell id="Hb3EcVcKEmUJnOGqKNmk-5" value="" style="endArrow=classic;html=1;entryX=0.47;entryY=0.487;entryDx=0;entryDy=0;entryPerimeter=0;exitX=0.52;exitY=0.273;exitDx=0;exitDy=0;exitPerimeter=0;" edge="1" parent="1" source="Hb3EcVcKEmUJnOGqKNmk-1" target="Hb3EcVcKEmUJnOGqKNmk-2">
          <mxGeometry width="50" height="50" relative="1" as="geometry">
            <mxPoint x="190" y="150" as="sourcePoint" />
            <mxPoint x="330" y="210" as="targetPoint" />
          </mxGeometry>
        </mxCell>
        <mxCell id="Hb3EcVcKEmUJnOGqKNmk-7" value="" style="endArrow=classic;html=1;entryX=0.53;entryY=0.89;entryDx=0;entryDy=0;entryPerimeter=0;" edge="1" parent="1" target="Hb3EcVcKEmUJnOGqKNmk-2">
          <mxGeometry width="50" height="50" relative="1" as="geometry">
            <mxPoint x="190" y="300" as="sourcePoint" />
            <mxPoint x="365" y="344.20000000000005" as="targetPoint" />
          </mxGeometry>
        </mxCell>
        <mxCell id="Hb3EcVcKEmUJnOGqKNmk-8" value="" style="endArrow=classic;html=1;entryX=0.49;entryY=0.663;entryDx=0;entryDy=0;entryPerimeter=0;exitX=0.48;exitY=0.487;exitDx=0;exitDy=0;exitPerimeter=0;" edge="1" parent="1" source="Hb3EcVcKEmUJnOGqKNmk-2" target="Hb3EcVcKEmUJnOGqKNmk-1">
          <mxGeometry width="50" height="50" relative="1" as="geometry">
            <mxPoint x="390" y="430" as="sourcePoint" />
            <mxPoint x="440" y="380" as="targetPoint" />
          </mxGeometry>
        </mxCell>
        <mxCell id="Hb3EcVcKEmUJnOGqKNmk-10" value="&lt;b style=&quot;font-family: &amp;#34;comic sans ms&amp;#34;&quot;&gt;TSval=X&lt;/b&gt;" style="text;html=1;resizable=0;autosize=1;align=center;verticalAlign=middle;points=[];fillColor=none;strokeColor=none;rounded=0;" vertex="1" parent="1">
          <mxGeometry x="245" y="170" width="60" height="20" as="geometry" />
        </mxCell>
        <mxCell id="Hb3EcVcKEmUJnOGqKNmk-11" value="&lt;b style=&quot;font-family: &amp;#34;comic sans ms&amp;#34;&quot;&gt;TSval=Y&lt;/b&gt;" style="text;html=1;resizable=0;autosize=1;align=center;verticalAlign=middle;points=[];fillColor=none;strokeColor=none;rounded=0;" vertex="1" parent="1">
          <mxGeometry x="245" y="220" width="60" height="20" as="geometry" />
        </mxCell>
        <mxCell id="Hb3EcVcKEmUJnOGqKNmk-12" value="&lt;b style=&quot;font-family: &amp;#34;comic sans ms&amp;#34;&quot;&gt;TSecr=X&lt;/b&gt;" style="text;html=1;resizable=0;autosize=1;align=center;verticalAlign=middle;points=[];fillColor=none;strokeColor=none;rounded=0;" vertex="1" parent="1">
          <mxGeometry x="240" y="240" width="70" height="20" as="geometry" />
        </mxCell>
        <mxCell id="Hb3EcVcKEmUJnOGqKNmk-13" value="&lt;b style=&quot;font-family: &amp;#34;comic sans ms&amp;#34;&quot;&gt;TSecr=Y&lt;/b&gt;" style="text;html=1;resizable=0;autosize=1;align=center;verticalAlign=middle;points=[];fillColor=none;strokeColor=none;rounded=0;" vertex="1" parent="1">
          <mxGeometry x="245" y="310" width="70" height="20" as="geometry" />
        </mxCell>
        <mxCell id="Hb3EcVcKEmUJnOGqKNmk-16" value="&lt;b style=&quot;font-family: &amp;#34;comic sans ms&amp;#34;&quot;&gt;TSval=Z&lt;/b&gt;" style="text;html=1;resizable=0;autosize=1;align=center;verticalAlign=middle;points=[];fillColor=none;strokeColor=none;rounded=0;" vertex="1" parent="1">
          <mxGeometry x="250" y="290" width="60" height="20" as="geometry" />
        </mxCell>
      </root>
    </mxGraphModel>
  </diagram>
</mxfile>
